<?xml version="1.0" encoding="UTF-8"?>
<svg xmlns="http://www.w3.org/2000/svg" version="1.1" viewBox="0 0 1080 1921">
  <defs>
    <style>
      .cls-1 {
        fill: none;
        stroke: #000;
        stroke-miterlimit: 10;
        stroke-width: 4px;
      }
    </style>
  </defs>
  <g id="_레이어_2" data-name="레이어 2">
    <polygon class="cls-1" points="0 797.17 1080.5 747.17 1080 797.17 557 824 577 1101 1080.5 1080.5 1080 1261 1017 1357 853.33 1357 733 1304 0 1357 0 1163.83 540 1113.83 513 831 0 863.83 0 797.17"/>
  </g>
  <g id="_01" data-name="01">
    <polygon class="cls-1" points="539.74 1114.22 512.74 831.39 556.74 824.39 576.74 1101.39 539.74 1114.22"/>
  </g>
  <g id="_02" data-name="02">
    <polygon class="cls-1" points="556.74 824.39 1079.74 797.56 1080.24 747.56 -.26 797.56 -.26 864.22 512.74 831.39 556.74 824.39"/>
  </g>
  <g id="_03" data-name="03">
    <polygon class="cls-1" points="576.74 1101.39 1080.24 1080.89 1079.74 1261.39 1016.74 1357.39 853.07 1357.39 732.74 1304.39 -.26 1357.39 -.26 1164.22 539.74 1114.22 576.74 1101.39"/>
  </g>
</svg>